<svg width="400" height="60" viewBox="0 0 400 60" xmlns="http://www.w3.org/2000/svg">
  <g transform="translate(28, 30)">
    <rect x="-4" y="-11" width="5.5" height="22" rx="2" fill="none" stroke="#00FF94" stroke-width="1.1"/>
    <rect x="4" y="-8" width="4" height="16" rx="1.5" fill="none" stroke="#00FF94" stroke-width="1.1"/>
    <path d="M10 0 L16 0 C17 0 17 -7 18 -7 L21 -7 C22 -7 22 0 23 0 L25 0 C26 0 26 -6 27 -6 C28 -6 28 -3.5 29 -3.5 C30 -3.5 29 -6 30 -6 C31 -6 31 0 32 0 L34 0 C35 0 36 -8 37 -8 C38 -8 39 0 40 0 C40 -3 40 -4 41 -4 L42 0 L44 0 C45 0 45 -6 46 -6 C47 -6 47 0 47 0 L49 0 C50 0 50 -6 51 -6 C52 -6 52 -3 53 -3 C54 -3 53 -6 54 -6 C55 -6 55 0 56 0 L62 0"
          fill="none" stroke="#00FF94" stroke-width="1.5" stroke-linecap="round" stroke-linejoin="round"/>
    <rect x="64" y="-8" width="4" height="16" rx="1.5" fill="none" stroke="#00FF94" stroke-width="1.1"/>
    <rect x="70.5" y="-11" width="5.5" height="22" rx="2" fill="none" stroke="#00FF94" stroke-width="1.1"/>
  </g>
  <text x="114" y="36" text-anchor="start" font-family="'SF Pro Display','Helvetica Neue','Arial',sans-serif" font-size="21" font-weight="500" fill="#FAFAFA" letter-spacing="4">TRAINOVA</text>
</svg>
