<svg width="800" height="400" viewBox="0 0 800 400" xmlns="http://www.w3.org/2000/svg">
  <rect width="800" height="400" fill="#0a0a0f"/>
  <g transform="translate(400, 140)">
    <rect x="-108" y="-36" width="16" height="72" rx="5" fill="#12121a" stroke="#00FF94" stroke-width="2"/>
    <rect x="-88" y="-26" width="12" height="52" rx="4" fill="#12121a" stroke="#00FF94" stroke-width="2"/>
    <path d="M-72 0 L-40 0 C-38 0 -38 -20 -36 -20 L-30 -20 C-28 -20 -28 0 -26 0 L-22 0 C-20 0 -20 -18 -18 -18 C-16 -18 -16 -10 -14 -10 C-12 -10 -14 -18 -12 -18 C-10 -18 -10 0 -8 0 L-4 0 C-2 0 0 -24 2 -24 C4 -24 6 0 8 0 C8 -8 8 -12 10 -12 L12 0 L16 0 C18 0 18 -18 20 -18 C22 -18 22 0 22 0 L26 0 C28 0 28 -18 30 -18 C32 -18 32 -8 34 -8 C36 -8 34 -18 36 -18 C38 -18 38 0 40 0 L72 0"
          fill="none" stroke="#00FF94" stroke-width="3.2" stroke-linecap="round" stroke-linejoin="round"/>
    <rect x="76" y="-26" width="12" height="52" rx="4" fill="#12121a" stroke="#00FF94" stroke-width="2"/>
    <rect x="92" y="-36" width="16" height="72" rx="5" fill="#12121a" stroke="#00FF94" stroke-width="2"/>
  </g>
  <text x="400" y="252" text-anchor="middle" font-family="'SF Pro Display','Helvetica Neue','Arial',sans-serif" font-size="40" font-weight="500" fill="#FAFAFA" letter-spacing="8">TRAINOVA</text>
  <text x="400" y="292" text-anchor="middle" font-family="'SF Pro Display','Helvetica Neue','Arial',sans-serif" font-size="13" font-weight="400" fill="#00cc76" letter-spacing="4">FORJE SEU CORPO COM PRECISÃO DE IA</text>
</svg>
