<svg width="512" height="512" viewBox="0 0 512 512" xmlns="http://www.w3.org/2000/svg">
  <rect width="512" height="512" rx="112" fill="#0a0a0f"/>
  <g transform="translate(256, 256)">
    <rect x="-108" y="-42" width="18" height="84" rx="6" fill="#12121a" stroke="#00FF94" stroke-width="2.6"/>
    <rect x="-86" y="-30" width="12" height="60" rx="4" fill="#12121a" stroke="#00FF94" stroke-width="2.6"/>
    <path d="M-70 0 L-40 0 C-38 0 -38 -22 -36 -22 L-30 -22 C-28 -22 -28 0 -26 0 L-22 0 C-20 0 -20 -20 -18 -20 C-16 -20 -16 -11 -14 -11 C-12 -11 -14 -20 -12 -20 C-10 -20 -10 0 -8 0 L-4 0 C-2 0 0 -28 2 -28 C4 -28 6 0 8 0 C8 -9 8 -14 10 -14 L12 0 L16 0 C18 0 18 -20 20 -20 C22 -20 22 0 22 0 L26 0 C28 0 28 -20 30 -20 C32 -20 32 -9 34 -9 C36 -9 34 -20 36 -20 C38 -20 38 0 40 0 L70 0"
          fill="none" stroke="#00FF94" stroke-width="4.2" stroke-linecap="round" stroke-linejoin="round"/>
    <rect x="74" y="-30" width="12" height="60" rx="4" fill="#12121a" stroke="#00FF94" stroke-width="2.6"/>
    <rect x="90" y="-42" width="18" height="84" rx="6" fill="#12121a" stroke="#00FF94" stroke-width="2.6"/>
  </g>
</svg>
